<svg width="51" height="68" viewBox="0 0 51 68" fill="none" xmlns="http://www.w3.org/2000/svg">
<mask id="mask0_56341_13286" style="mask-type:luminance" maskUnits="userSpaceOnUse" x="0" y="0" width="51" height="68">
<path fill-rule="evenodd" clip-rule="evenodd" d="M0 0H51V68H0V0Z" fill="white"/>
</mask>
<g mask="url(#mask0_56341_13286)">
<path fill-rule="evenodd" clip-rule="evenodd" d="M25.5003 0C11.4172 0 0 11.4089 0 25.4833V42.5169C0 56.5906 11.4172 68.0002 25.5003 68.0002C39.5835 68.0002 51.0007 56.5906 51.0007 42.5169V25.4833C51.0007 11.4089 39.5835 0 25.5003 0Z" fill="#52453C"/>
</g>
<path fill-rule="evenodd" clip-rule="evenodd" d="M28.226 42.3314C30.4004 42.1666 32.1971 42.0585 33.8774 42.267L33.9571 42.2767L34.0285 42.2386C34.4797 41.9927 34.6898 41.4815 34.5186 41.0562C34.3751 40.6766 33.8455 40.432 33.4137 40.3648C32.9527 40.2935 32.4169 40.3046 31.7729 40.396L31.5712 40.4272C30.9099 40.5283 29.9097 40.6821 28.5386 40.7375L28.2516 40.7521C27.1384 40.8075 26.0896 40.8615 25.5226 40.8324C24.7428 40.8026 23.9352 40.7493 23.3731 40.4535L23.1852 40.3551L22.6709 41.0375L22.7652 41.1836C23.3273 42.0578 24.1051 42.5205 25.0117 42.5205C25.4789 42.5205 26.4993 42.4603 28.226 42.3314Z" fill="#EDE6E4"/>
<path fill-rule="evenodd" clip-rule="evenodd" d="M38.6765 45.4226C35.3847 46.6902 29.1122 48.0992 26.781 48.0992C26.7554 48.0992 26.7304 48.0978 26.7048 48.0978C26.2972 48.0978 26.2972 48.0978 26.2972 47.5651V45.3741C26.2972 44.5131 26.1641 43.3313 25.019 43.005L24.9545 42.9863L23.8711 43.2572L23.9647 43.5169C24.0756 43.8231 24.1692 44.6017 24.1692 45.2141L24.138 48.0659C24.138 49.0115 25.8106 50.0055 26.544 50.0055H26.605C28.9555 50.0055 35.6522 48.1768 39.2754 46.5392L39.5347 46.4222L38.8692 45.3485L38.6765 45.4226Z" fill="#EDE6E4"/>
<path fill-rule="evenodd" clip-rule="evenodd" d="M43.9017 60.1541L43.8386 33.9989C43.8386 33.4808 43.8567 33.0451 43.8733 32.6412C43.8879 32.2866 43.9017 31.9568 43.9017 31.6195C43.9017 30.171 41.2656 28.6914 39.5452 28.4926L39.3961 28.4746L38.8076 29.3308L39.0558 29.461C40.1829 30.0561 41.2705 31.1457 41.5761 31.7864C41.7217 32.1058 41.8049 32.6724 41.8049 33.3423L41.9262 62.0057C41.9262 62.0057 42.8384 61.2604 43.9017 60.1541Z" fill="#EDE6E4"/>
<path fill-rule="evenodd" clip-rule="evenodd" d="M32.53 34.1182C32.0053 34.1072 30.8145 34.1854 29.5536 34.2672C28.2483 34.3524 26.9175 34.4403 26.1279 34.4452V36.1645C26.1286 36.1645 26.13 36.1645 26.1307 36.1645C26.7913 36.152 27.3438 36.1257 28.7287 36.0627C30.1837 35.9962 31.6865 35.8819 32.241 35.8943C32.7331 35.9047 32.7429 35.9047 32.7338 36.3127C32.7137 37.243 32.3062 38.5758 31.9623 39.4341L31.8591 39.6904L33.1075 40.043L33.2107 39.9397C34.0065 39.148 34.9991 37.2548 35.022 36.1742C35.0428 35.2016 33.4166 34.1376 32.53 34.1182Z" fill="#EDE6E4"/>
<path fill-rule="evenodd" clip-rule="evenodd" d="M13.2724 19.2987C14.7239 19.1734 20.2831 18.9621 21.6598 19.0487C22.4576 19.1082 22.5775 19.3064 22.556 19.7601C22.5255 20.495 22.181 24.1338 21.9897 25.664C19.4472 25.7319 14.8036 25.9113 14.4265 25.9397C13.8297 25.9743 13.1899 26.3346 13.1899 26.8146L13.4623 27.5038L24.2148 27.3466C24.5746 27.3466 24.8199 27.1097 24.8262 26.7585C24.8345 26.2424 24.3319 25.6502 23.5889 25.6273H23.5286C24.0484 23.978 24.7881 20.3392 24.8705 19.4504C24.8948 19.1914 24.7409 18.8769 24.4117 18.5153C23.7836 17.8226 22.5872 17.0488 21.9287 17.0488C20.2395 17.0488 14.274 17.6854 13.0638 17.9951L12.8447 18.0519L13.0402 19.3195L13.2724 19.2987Z" fill="#EDE6E4"/>
<path fill-rule="evenodd" clip-rule="evenodd" d="M10.3712 19.6542C10.5223 20.6579 10.9916 25.6205 11.088 27.2393C11.1178 27.7242 11.1469 28.2257 11.7139 28.2257C11.8539 28.2257 11.9932 28.1544 12.1277 28.0131C12.5124 27.6106 12.8923 26.5889 12.8396 25.493C12.7689 23.8852 12.5505 20.022 12.3655 19.0065C12.1388 17.8102 10.9847 17.1265 9.11935 17.0828L8.9821 17.0801L8.48926 17.8192L8.76445 17.937C9.89501 18.4205 10.2395 18.7897 10.3712 19.6542Z" fill="#EDE6E4"/>
<path fill-rule="evenodd" clip-rule="evenodd" d="M0 37.6805C7.27829 37.1617 16.7331 36.4323 19.0261 36.3374C21.9173 36.2161 24.5646 36.1545 26.1318 36.1676V34.4504L18.8099 34.7732C18.9873 34.2128 19.1149 33.5589 19.1405 33.0456L19.2341 31.0624C19.2341 30.9467 19.2493 30.8227 19.2639 30.6994C19.2805 30.5574 19.2972 30.414 19.2972 30.2796C19.2972 29.9631 19.0573 29.6978 18.586 29.4893C17.9399 29.1983 16.6139 29.0529 15.8611 29.1228L15.7052 29.1381L15.3655 30.0441L15.6324 30.1141C16.2313 30.2713 16.7505 30.4182 17.0555 30.6398C17.2551 30.7805 17.2627 30.9038 17.2627 31.406V34.8626C16.3651 34.9014 15.2719 34.954 14.1434 35.0094C12.6628 35.0822 5.90027 35.531 0 35.903V37.6805Z" fill="#EDE6E4"/>
</svg>
